<svg width="107" height="17" viewBox="0 0 107 17" fill="none" xmlns="http://www.w3.org/2000/svg">
<path d="M0.598011 16V1.45455H2.79261V8.40057H2.97017L9.07102 1.45455H11.8338L5.96733 8.00284L11.8551 16H9.21307L4.51136 9.50142L2.79261 11.4759V16H0.598011ZM15.8324 1.45455V16H13.7088V1.45455H15.8324ZM18.6893 16V5.09091H20.8129V16H18.6893ZM19.7617 3.40767C19.3924 3.40767 19.0752 3.28456 18.81 3.03835C18.5496 2.7874 18.4194 2.48911 18.4194 2.14347C18.4194 1.79309 18.5496 1.49479 18.81 1.24858C19.0752 0.997632 19.3924 0.872159 19.7617 0.872159C20.131 0.872159 20.4459 0.997632 20.7063 1.24858C20.9715 1.49479 21.104 1.79309 21.104 2.14347C21.104 2.48911 20.9715 2.7874 20.7063 3.03835C20.4459 3.28456 20.131 3.40767 19.7617 3.40767ZM25.7933 9.52273V16H23.6697V5.09091H25.7081V6.86648H25.843C26.094 6.28883 26.487 5.82481 27.022 5.47443C27.5618 5.12405 28.2412 4.94886 29.0604 4.94886C29.8037 4.94886 30.4548 5.10511 31.0135 5.41761C31.5722 5.72538 32.0054 6.18466 32.3132 6.79545C32.621 7.40625 32.7749 8.16146 32.7749 9.06108V16H30.6513V9.31676C30.6513 8.52604 30.4453 7.90814 30.0334 7.46307C29.6214 7.01326 29.0556 6.78835 28.3359 6.78835C27.8435 6.78835 27.4055 6.89489 27.022 7.10795C26.6432 7.32102 26.3426 7.63352 26.12 8.04545C25.9022 8.45265 25.7933 8.94508 25.7933 9.52273ZM35.6229 16V5.09091H37.7464V16H35.6229ZM36.6953 3.40767C36.326 3.40767 36.0088 3.28456 35.7436 3.03835C35.4832 2.7874 35.353 2.48911 35.353 2.14347C35.353 1.79309 35.4832 1.49479 35.7436 1.24858C36.0088 0.997632 36.326 0.872159 36.6953 0.872159C37.0646 0.872159 37.3795 0.997632 37.6399 1.24858C37.9051 1.49479 38.0376 1.79309 38.0376 2.14347C38.0376 2.48911 37.9051 2.7874 37.6399 3.03835C37.3795 3.28456 37.0646 3.40767 36.6953 3.40767ZM42.5565 12.2997L42.5423 9.70739H42.9116L47.2582 5.09091H49.8008L44.8434 10.3466H44.5096L42.5565 12.2997ZM40.6033 16V1.45455H42.7269V16H40.6033ZM47.4925 16L43.5863 10.8153L45.0494 9.33097L50.0991 16H47.4925Z" fill="#00D9A5"/>
<path d="M51.1893 3.34375V1.45455H62.4464V3.34375H57.908V16H55.7205V3.34375H51.1893ZM66.4538 16.2415C65.7625 16.2415 65.1375 16.1136 64.5788 15.858C64.0201 15.5975 63.5774 15.2211 63.2507 14.7287C62.9287 14.2363 62.7678 13.6326 62.7678 12.9176C62.7678 12.3021 62.8861 11.7955 63.1229 11.3977C63.3596 11 63.6792 10.6851 64.0817 10.4531C64.4841 10.2211 64.9339 10.0459 65.4311 9.92756C65.9283 9.80919 66.4349 9.71922 66.951 9.65767C67.6044 9.58191 68.1347 9.52036 68.5419 9.47301C68.9491 9.42093 69.245 9.33807 69.4297 9.22443C69.6143 9.1108 69.7067 8.92614 69.7067 8.67045V8.62074C69.7067 8.00047 69.5315 7.51989 69.1811 7.17898C68.8355 6.83807 68.3194 6.66761 67.6328 6.66761C66.9179 6.66761 66.3544 6.82623 65.9425 7.14347C65.5353 7.45597 65.2536 7.80398 65.0973 8.1875L63.1016 7.73295C63.3383 7.07008 63.6839 6.53504 64.1385 6.12784C64.5978 5.71591 65.1257 5.41761 65.7223 5.23295C66.3189 5.04356 66.9463 4.94886 67.6044 4.94886C68.04 4.94886 68.5017 5.00095 68.9893 5.10511C69.4818 5.20455 69.9411 5.3892 70.3672 5.65909C70.7981 5.92898 71.1508 6.31487 71.4254 6.81676C71.7 7.31392 71.8374 7.96023 71.8374 8.75568V16H69.7635V14.5085H69.6783C69.541 14.7831 69.335 15.053 69.0604 15.3182C68.7857 15.5833 68.433 15.8035 68.0021 15.9787C67.5713 16.1539 67.0552 16.2415 66.4538 16.2415ZM66.9155 14.5369C67.5026 14.5369 68.0045 14.4209 68.4212 14.1889C68.8426 13.9569 69.1622 13.6539 69.38 13.2798C69.6025 12.901 69.7138 12.4962 69.7138 12.0653V10.6591C69.638 10.7348 69.4912 10.8059 69.2734 10.8722C69.0604 10.9337 68.8165 10.9882 68.5419 11.0355C68.2673 11.0781 67.9998 11.1184 67.7393 11.1562C67.4789 11.1894 67.2611 11.2178 67.0859 11.2415C66.674 11.2936 66.2976 11.3812 65.9567 11.5043C65.6205 11.6274 65.3506 11.8049 65.147 12.0369C64.9482 12.2642 64.8487 12.5672 64.8487 12.946C64.8487 13.4716 65.0429 13.8693 65.4311 14.1392C65.8194 14.4044 66.3142 14.5369 66.9155 14.5369ZM76.7894 9.52273V16H74.6658V1.45455H76.761V6.86648H76.896C77.1516 6.27936 77.5423 5.81297 78.0678 5.46733C78.5934 5.12169 79.2799 4.94886 80.1275 4.94886C80.8756 4.94886 81.529 5.10275 82.0877 5.41051C82.6512 5.71828 83.0868 6.17756 83.3945 6.78835C83.707 7.39441 83.8633 8.15199 83.8633 9.06108V16H81.7397V9.31676C81.7397 8.51657 81.5337 7.89631 81.1218 7.45597C80.7099 7.01089 80.137 6.78835 79.4031 6.78835C78.9012 6.78835 78.4513 6.89489 78.0536 7.10795C77.6606 7.32102 77.3505 7.63352 77.1232 8.04545C76.9007 8.45265 76.7894 8.94508 76.7894 9.52273ZM91.3988 16.2202C90.324 16.2202 89.3983 15.9905 88.6218 15.5312C87.85 15.0672 87.2534 14.4162 86.832 13.5781C86.4154 12.7353 86.207 11.7481 86.207 10.6165C86.207 9.49905 86.4154 8.5142 86.832 7.66193C87.2534 6.80966 87.8406 6.14441 88.5934 5.66619C89.351 5.18797 90.2364 4.94886 91.2496 4.94886C91.8652 4.94886 92.4618 5.05066 93.0394 5.25426C93.6171 5.45786 94.1355 5.77746 94.5948 6.21307C95.0541 6.64867 95.4163 7.21449 95.6815 7.91051C95.9466 8.6018 96.0792 9.44223 96.0792 10.4318V11.1847H87.4073V9.59375H93.9982C93.9982 9.03504 93.8846 8.54025 93.6573 8.10938C93.43 7.67377 93.1104 7.33049 92.6985 7.07955C92.2913 6.8286 91.8131 6.70312 91.2638 6.70312C90.6673 6.70312 90.1464 6.84991 89.7013 7.14347C89.261 7.43229 88.9201 7.81108 88.6786 8.27983C88.4419 8.74384 88.3235 9.24811 88.3235 9.79261V11.0355C88.3235 11.7647 88.4513 12.3849 88.707 12.8963C88.9674 13.4077 89.3297 13.7983 89.7937 14.0682C90.2577 14.3333 90.7998 14.4659 91.4201 14.4659C91.8226 14.4659 92.1895 14.4091 92.521 14.2955C92.8524 14.1771 93.1388 14.0019 93.3803 13.7699C93.6218 13.5379 93.8065 13.2514 93.9343 12.9105L95.9442 13.2727C95.7833 13.8646 95.4944 14.383 95.0778 14.8281C94.6658 15.2685 94.1474 15.6117 93.5224 15.858C92.9021 16.0994 92.1942 16.2202 91.3988 16.2202ZM106.61 7.75426L104.685 8.09517C104.605 7.84896 104.477 7.61458 104.302 7.39205C104.131 7.16951 103.899 6.98722 103.606 6.84517C103.312 6.70312 102.945 6.6321 102.505 6.6321C101.904 6.6321 101.402 6.76705 100.999 7.03693C100.597 7.30208 100.396 7.64536 100.396 8.06676C100.396 8.43134 100.531 8.72491 100.8 8.94744C101.07 9.16998 101.506 9.35227 102.107 9.49432L103.84 9.89205C104.844 10.1241 105.592 10.4815 106.085 10.9645C106.577 11.4474 106.823 12.0748 106.823 12.8466C106.823 13.5 106.634 14.0824 106.255 14.5938C105.881 15.1004 105.358 15.4981 104.685 15.7869C104.018 16.0758 103.244 16.2202 102.363 16.2202C101.141 16.2202 100.145 15.9598 99.3729 15.4389C98.6011 14.9134 98.1276 14.1676 97.9524 13.2017L100.005 12.8892C100.133 13.4242 100.396 13.8291 100.793 14.1037C101.191 14.3736 101.71 14.5085 102.349 14.5085C103.045 14.5085 103.601 14.3641 104.018 14.0753C104.434 13.7817 104.643 13.4242 104.643 13.0028C104.643 12.6619 104.515 12.3755 104.259 12.1435C104.008 11.9115 103.622 11.7363 103.102 11.6179L101.255 11.2131C100.237 10.9811 99.4841 10.6117 98.9964 10.1051C98.5135 9.59848 98.272 8.95691 98.272 8.1804C98.272 7.53646 98.4519 6.97301 98.8118 6.49006C99.1716 6.0071 99.6688 5.63068 100.303 5.3608C100.938 5.08617 101.665 4.94886 102.484 4.94886C103.663 4.94886 104.591 5.20455 105.268 5.71591C105.945 6.22254 106.392 6.90199 106.61 7.75426Z" fill="black"/>
</svg>
